<svg width="28" height="28" viewBox="0 0 28 28" fill="none" xmlns="http://www.w3.org/2000/svg">
<g clip-path="url(#clip0_3373_5571)">
<path d="M1.37695 14C2.47362 8.02667 7.70845 3.5 13.9991 3.5C20.2898 3.5 25.5234 8.02667 26.6213 14C25.5246 19.9733 20.2898 24.5 13.9991 24.5C7.70845 24.5 2.47478 19.9733 1.37695 14ZM13.9991 19.8333C15.5462 19.8333 17.0299 19.2188 18.1239 18.1248C19.2179 17.0308 19.8324 15.5471 19.8324 14C19.8324 12.4529 19.2179 10.9692 18.1239 9.87521C17.0299 8.78125 15.5462 8.16667 13.9991 8.16667C12.452 8.16667 10.9683 8.78125 9.87433 9.87521C8.78037 10.9692 8.16578 12.4529 8.16578 14C8.16578 15.5471 8.78037 17.0308 9.87433 18.1248C10.9683 19.2188 12.452 19.8333 13.9991 19.8333ZM13.9991 17.5C13.0709 17.5 12.1806 17.1313 11.5242 16.4749C10.8679 15.8185 10.4991 14.9283 10.4991 14C10.4991 13.0717 10.8679 12.1815 11.5242 11.5251C12.1806 10.8687 13.0709 10.5 13.9991 10.5C14.9274 10.5 15.8176 10.8687 16.474 11.5251C17.1304 12.1815 17.4991 13.0717 17.4991 14C17.4991 14.9283 17.1304 15.8185 16.474 16.4749C15.8176 17.1313 14.9274 17.5 13.9991 17.5Z" fill="black"/>
</g>
<defs>
<clipPath id="clip0_3373_5571">
<rect width="28" height="28" fill="white"/>
</clipPath>
</defs>
</svg>
