<svg width="16" height="16" viewBox="0 0 16 16" fill="none" xmlns="http://www.w3.org/2000/svg">
<g clip-path="url(#clip0_3372_3225)">
<g clip-path="url(#clip1_3372_3225)">
<mask id="mask0_3372_3225" style="mask-type:luminance" maskUnits="userSpaceOnUse" x="0" y="0" width="16" height="16">
<path d="M16 0H0V16H16V0Z" fill="white"/>
</mask>
<g mask="url(#mask0_3372_3225)">
<path d="M8 0C3.58176 0 0 3.58176 0 8C0 11.7517 2.58304 14.8998 6.06752 15.7645V10.4448H4.41792V8H6.06752V6.94656C6.06752 4.22368 7.29984 2.9616 9.97312 2.9616C10.48 2.9616 11.3546 3.06112 11.7123 3.16032V5.37632C11.5235 5.35648 11.1955 5.34656 10.7882 5.34656C9.47648 5.34656 8.9696 5.84352 8.9696 7.13536V8H11.5827L11.1338 10.4448H8.9696V15.9414C12.9309 15.463 16.0003 12.0902 16.0003 8C16 3.58176 12.4182 0 8 0Z" fill="#3F3F3F"/>
</g>
</g>
</g>
<defs>
<clipPath id="clip0_3372_3225">
<rect width="16" height="16" fill="white"/>
</clipPath>
<clipPath id="clip1_3372_3225">
<rect width="16" height="16" fill="white"/>
</clipPath>
</defs>
</svg>
