<svg width="16" height="16" viewBox="0 0 16 16" fill="none" xmlns="http://www.w3.org/2000/svg">
<g clip-path="url(#clip0_3372_3233)">
<g clip-path="url(#clip1_3372_3233)">
<mask id="mask0_3372_3233" style="mask-type:luminance" maskUnits="userSpaceOnUse" x="0" y="0" width="16" height="16">
<path d="M16 0H0V16H16V0Z" fill="white"/>
</mask>
<g mask="url(#mask0_3372_3233)">
<path d="M8 1.44062C10.1375 1.44062 10.3906 1.45 11.2313 1.4875C12.0125 1.52187 12.4344 1.65313 12.7156 1.7625C13.0875 1.90625 13.3562 2.08125 13.6344 2.35938C13.9156 2.64062 14.0875 2.90625 14.2313 3.27813C14.3406 3.55938 14.4718 3.98438 14.5062 4.7625C14.5438 5.60625 14.5531 5.85938 14.5531 7.99375C14.5531 10.1313 14.5438 10.3844 14.5062 11.225C14.4718 12.0062 14.3406 12.4282 14.2313 12.7094C14.0875 13.0813 13.9125 13.35 13.6344 13.6282C13.3531 13.9094 13.0875 14.0813 12.7156 14.225C12.4344 14.3344 12.0094 14.4656 11.2313 14.5C10.3875 14.5375 10.1344 14.5469 8 14.5469C5.8625 14.5469 5.60938 14.5375 4.76875 14.5C3.9875 14.4656 3.56562 14.3344 3.28438 14.225C2.9125 14.0813 2.64375 13.9062 2.36562 13.6282C2.08438 13.3469 1.9125 13.0813 1.76875 12.7094C1.65938 12.4282 1.52813 12.0031 1.49375 11.225C1.45625 10.3813 1.44687 10.1282 1.44687 7.99375C1.44687 5.85625 1.45625 5.60313 1.49375 4.7625C1.52813 3.98125 1.65938 3.55938 1.76875 3.27813C1.9125 2.90625 2.0875 2.6375 2.36562 2.35938C2.64687 2.07813 2.9125 1.90625 3.28438 1.7625C3.56562 1.65313 3.99062 1.52187 4.76875 1.4875C5.60938 1.45 5.8625 1.44062 8 1.44062ZM8 0C5.82813 0 5.55625 0.00937496 4.70313 0.046875C3.85313 0.0843752 3.26875 0.221875 2.7625 0.41875C2.23438 0.625 1.7875 0.896872 1.34375 1.34375C0.896872 1.7875 0.625 2.23438 0.41875 2.75938C0.221875 3.26875 0.0843752 3.85 0.046875 4.7C0.00937504 5.55625 0 5.82813 0 8C0 10.1718 0.00937504 10.4438 0.046875 11.2969C0.0843752 12.1469 0.221875 12.7313 0.41875 13.2375C0.625 13.7656 0.896872 14.2125 1.34375 14.6562C1.7875 15.1 2.23438 15.375 2.75938 15.5782C3.26875 15.775 3.85 15.9125 4.7 15.95C5.55313 15.9875 5.825 15.9969 7.99687 15.9969C10.1687 15.9969 10.4406 15.9875 11.2938 15.95C12.1438 15.9125 12.7282 15.775 13.2344 15.5782C13.7594 15.375 14.2062 15.1 14.65 14.6562C15.0938 14.2125 15.3687 13.7656 15.5718 13.2406C15.7687 12.7313 15.9062 12.15 15.9438 11.3C15.9813 10.4469 15.9906 10.175 15.9906 8.00312C15.9906 5.83125 15.9813 5.55938 15.9438 4.70625C15.9062 3.85625 15.7687 3.27187 15.5718 2.76562C15.375 2.23438 15.1031 1.7875 14.6562 1.34375C14.2125 0.9 13.7656 0.625 13.2406 0.421875C12.7313 0.225 12.15 0.0875 11.3 0.05C10.4438 0.00937504 10.1718 0 8 0Z" fill="#3F3F3F"/>
<path d="M8 3.89062C5.73125 3.89062 3.89062 5.73125 3.89062 8C3.89062 10.2687 5.73125 12.1094 8 12.1094C10.2687 12.1094 12.1094 10.2687 12.1094 8C12.1094 5.73125 10.2687 3.89062 8 3.89062ZM8 10.6656C6.52813 10.6656 5.33439 9.47184 5.33439 8C5.33439 6.52813 6.52813 5.33439 8 5.33439C9.47184 5.33439 10.6656 6.52813 10.6656 8C10.6656 9.47184 9.47184 10.6656 8 10.6656Z" fill="#3F3F3F"/>
<path d="M13.2313 3.7289C13.2313 4.26015 12.8 4.68828 12.2719 4.68828C11.7407 4.68828 11.3125 4.25702 11.3125 3.7289C11.3125 3.19765 11.7438 2.76953 12.2719 2.76953C12.8 2.76953 13.2313 3.20078 13.2313 3.7289Z" fill="#3F3F3F"/>
</g>
</g>
</g>
<defs>
<clipPath id="clip0_3372_3233">
<rect width="16" height="16" fill="white"/>
</clipPath>
<clipPath id="clip1_3372_3233">
<rect width="16" height="16" fill="white"/>
</clipPath>
</defs>
</svg>
