<svg width="16" height="16" viewBox="0 0 16 16" fill="none" xmlns="http://www.w3.org/2000/svg">
<g clip-path="url(#clip0_3372_3247)">
<g clip-path="url(#clip1_3372_3247)">
<mask id="mask0_3372_3247" style="mask-type:luminance" maskUnits="userSpaceOnUse" x="0" y="0" width="16" height="16">
<path d="M16 0H0V16H16V0Z" fill="white"/>
</mask>
<g mask="url(#mask0_3372_3247)">
<path d="M14.8156 0H1.18125C0.528125 0 0 0.515625 0 1.15313V14.8438C0 15.4813 0.528125 16 1.18125 16H14.8156C15.4687 16 16 15.4813 16 14.8469V1.15313C16 0.515625 15.4687 0 14.8156 0ZM4.74687 13.6344H2.37187V5.99687H4.74687V13.6344ZM3.55938 4.95625C2.79687 4.95625 2.18125 4.34062 2.18125 3.58125C2.18125 2.82187 2.79687 2.20625 3.55938 2.20625C4.31875 2.20625 4.93438 2.82187 4.93438 3.58125C4.93438 4.3375 4.31875 4.95625 3.55938 4.95625ZM13.6344 13.6344H11.2625V9.92184C11.2625 9.03752 11.2469 7.89687 10.0282 7.89687C8.79376 7.89687 8.60624 8.86248 8.60624 9.85936V13.6344H6.2375V5.99687H8.51248V7.04062H8.54376C8.85936 6.44062 9.6344 5.80625 10.7875 5.80625C13.1906 5.80625 13.6344 7.3875 13.6344 9.44376V13.6344Z" fill="#3F3F3F"/>
</g>
</g>
</g>
<defs>
<clipPath id="clip0_3372_3247">
<rect width="16" height="16" fill="white"/>
</clipPath>
<clipPath id="clip1_3372_3247">
<rect width="16" height="16" fill="white"/>
</clipPath>
</defs>
</svg>
