<svg width="249" height="73" viewBox="0 0 249 73" fill="none" xmlns="http://www.w3.org/2000/svg">
<path d="M91.8328 41.4375V23.6375H96.4828L102.908 34.8875L102.708 23.6375H107.208V41.4375H102.683L96.1828 30.0125L96.3078 41.4375H91.8328ZM116.488 28.1625C118.488 28.1625 120.088 28.8125 121.338 30.0625C122.588 31.3125 123.213 32.9625 123.213 34.9875C123.213 37.0125 122.588 38.6625 121.338 39.9375C120.088 41.2125 118.438 41.8625 116.413 41.8625C114.388 41.8625 112.738 41.2125 111.488 39.9625C110.238 38.6875 109.613 37.0375 109.613 35.0125C109.613 32.9875 110.238 31.3375 111.513 30.0625C112.788 28.8125 114.438 28.1625 116.488 28.1625ZM116.363 31.3375C115.563 31.3375 114.963 31.6375 114.513 32.2875C114.063 32.9375 113.838 33.8375 113.838 35.0125C113.838 36.2125 114.063 37.1375 114.513 37.7875C114.963 38.4375 115.613 38.7625 116.413 38.7625C117.238 38.7625 117.863 38.4125 118.313 37.7625C118.763 37.1125 118.963 36.1875 118.963 34.9875C118.963 33.8125 118.738 32.9125 118.288 32.2875C117.838 31.6375 117.213 31.3375 116.363 31.3375ZM133.296 28.5375H137.621L133.271 41.4375H128.371L124.021 28.5375H128.471L130.871 36.9125L133.296 28.5375ZM151.449 41.4375H147.149C147.024 41.0875 146.949 40.6625 146.949 40.2125C145.749 41.3125 144.324 41.8375 142.674 41.8375C141.274 41.8375 140.149 41.4875 139.349 40.7875C138.549 40.0875 138.149 39.1125 138.149 37.8625C138.149 37.2625 138.249 36.7125 138.474 36.2375C138.674 35.7875 138.924 35.4125 139.224 35.1625C139.499 34.9125 139.924 34.6625 140.474 34.4625C141.024 34.2625 141.474 34.1375 141.874 34.0625C142.249 33.9875 142.774 33.8875 143.474 33.7875C145.074 33.5375 145.999 33.3875 146.199 33.2875C146.649 33.1125 146.874 32.7625 146.874 32.2375C146.874 31.3375 146.199 30.8625 144.899 30.8625C144.199 30.8625 143.699 30.9875 143.399 31.1875C143.099 31.4125 142.874 31.8375 142.724 32.4875H138.724C138.974 29.6125 141.049 28.1625 144.949 28.1625C147.024 28.1625 148.599 28.5625 149.699 29.3375C150.174 29.6875 150.499 30.1125 150.674 30.5625C150.849 31.0375 150.949 31.7125 150.949 32.5625V37.7375C150.949 39.4375 151.099 40.6875 151.449 41.4375ZM146.874 35.3875C146.674 35.4875 146.424 35.5875 146.174 35.6625C145.899 35.7625 145.674 35.8125 145.524 35.8375C145.374 35.8875 145.099 35.9375 144.749 36.0125C144.399 36.0875 144.174 36.1375 144.074 36.1375C143.024 36.3625 142.499 36.8875 142.499 37.7125C142.499 38.2125 142.649 38.5875 142.949 38.8375C143.249 39.1125 143.649 39.2375 144.174 39.2375C144.924 39.2375 145.549 39.0375 146.074 38.5875C146.599 38.1375 146.874 37.5125 146.874 36.7125V35.3875Z" fill="white"/>
<path d="M161.593 23.6625L161.568 26.6875C161.218 26.6625 160.818 26.6375 160.418 26.6375C159.793 26.6375 159.368 26.7125 159.168 26.8625C158.968 27.0125 158.868 27.3125 158.868 27.7625V28.5375H161.418V31.3375H158.918V41.4375H154.668V31.3375H152.618V28.5375H154.668V27.9625C154.668 26.3625 155.043 25.2375 155.843 24.5875C156.618 23.9375 157.868 23.6125 159.593 23.6125C160.018 23.6125 160.693 23.6375 161.593 23.6625ZM169.271 28.1625C171.271 28.1625 172.871 28.8125 174.121 30.0625C175.371 31.3125 175.996 32.9625 175.996 34.9875C175.996 37.0125 175.371 38.6625 174.121 39.9375C172.871 41.2125 171.221 41.8625 169.196 41.8625C167.171 41.8625 165.521 41.2125 164.271 39.9625C163.021 38.6875 162.396 37.0375 162.396 35.0125C162.396 32.9875 163.021 31.3375 164.296 30.0625C165.571 28.8125 167.221 28.1625 169.271 28.1625ZM169.146 31.3375C168.346 31.3375 167.746 31.6375 167.296 32.2875C166.846 32.9375 166.621 33.8375 166.621 35.0125C166.621 36.2125 166.846 37.1375 167.296 37.7875C167.746 38.4375 168.396 38.7625 169.196 38.7625C170.021 38.7625 170.646 38.4125 171.096 37.7625C171.546 37.1125 171.746 36.1875 171.746 34.9875C171.746 33.8125 171.521 32.9125 171.071 32.2875C170.621 31.6375 169.996 31.3375 169.146 31.3375ZM191.154 28.5375L191.129 41.4375H187.054V39.7125C186.029 41.1125 184.654 41.8125 182.929 41.8125C181.379 41.8125 180.229 41.3625 179.454 40.4125C178.679 39.4625 178.304 38.2125 178.304 36.6125V28.5375H182.604V35.6625C182.604 36.1125 182.604 36.4625 182.654 36.7125C182.679 36.9625 182.754 37.2375 182.879 37.5125C182.979 37.7875 183.179 37.9875 183.454 38.1125C183.729 38.2375 184.104 38.2875 184.554 38.2875C185.454 38.2875 186.079 38.0375 186.429 37.4875C186.754 36.9625 186.929 36.2125 186.929 35.2625V28.5375H191.154ZM198.102 28.5375V30.2375C199.152 28.8875 200.552 28.1875 202.277 28.1875C203.727 28.1875 204.852 28.6125 205.702 29.4125C206.527 30.2125 206.952 31.3875 206.952 32.9375V41.4375H202.652V34.1125C202.652 33.3375 202.502 32.7375 202.252 32.2875C201.977 31.8625 201.452 31.6375 200.702 31.6375C199.927 31.6375 199.327 31.8625 198.902 32.3125C198.477 32.7625 198.277 33.4125 198.277 34.2375V41.4375H194.027V28.5375H198.102ZM222.674 23.6375L222.649 41.4375H218.599V39.9125C217.724 41.1625 216.499 41.7625 214.899 41.7625C213.199 41.7625 211.799 41.1375 210.749 39.8875C209.699 38.6375 209.174 36.9875 209.174 34.9125C209.174 32.9125 209.699 31.2875 210.699 30.0625C211.699 28.8375 213.049 28.2125 214.699 28.2125C216.274 28.2125 217.524 28.8375 218.449 30.0375V23.6375H222.674ZM215.999 31.4875C215.199 31.4875 214.574 31.7875 214.124 32.3875C213.674 32.9875 213.449 33.8375 213.449 34.9375C213.449 36.0375 213.674 36.8875 214.124 37.4875C214.574 38.0875 215.199 38.3875 215.999 38.3875C216.824 38.3875 217.449 38.0875 217.899 37.4875C218.349 36.8875 218.574 36.0625 218.574 34.9625C218.574 33.8875 218.349 33.0375 217.899 32.4125C217.449 31.8125 216.799 31.4875 215.999 31.4875ZM234.771 28.3625V32.1625C234.096 32.0125 233.546 31.9125 233.096 31.9125C230.946 31.9125 229.896 33.1375 229.896 35.5625V41.4375H225.671V28.5375H229.721L229.696 30.7375C230.146 29.8875 230.671 29.2625 231.296 28.8625C231.921 28.4625 232.721 28.2375 233.671 28.2375C234.021 28.2375 234.371 28.2875 234.771 28.3625ZM244.04 28.5375H248.365L243.69 41.5625C243.14 43.0625 242.54 44.1625 241.84 44.8375C241.14 45.5375 240.065 45.8625 238.615 45.8625H235.84V42.4375C235.99 42.4375 236.24 42.4625 236.54 42.4625C236.84 42.4625 237.065 42.4625 237.215 42.4625C237.565 42.4625 237.84 42.4375 238.065 42.3625C238.29 42.2875 238.465 42.1375 238.59 41.9375C238.715 41.7375 238.815 41.5625 238.865 41.4125C238.915 41.2625 238.99 40.9875 239.09 40.5875L234.565 28.5375H239.065L241.565 37.0625L244.04 28.5375Z" fill="url(#paint0_linear_20_3465)"/>
<rect width="11.3137" height="11.3137" transform="matrix(-0.695154 -0.718861 -0.718861 0.695154 15.9976 36.0977)" fill="#F5F7F8"/>
<rect width="11.3137" height="33.941" transform="matrix(-0.695154 -0.718861 -0.718861 0.695154 40.3967 12.5039)" fill="white"/>
<rect width="11.3137" height="33.941" transform="matrix(-0.695154 -0.718861 -0.718861 0.695154 40.3967 12.5039)" fill="url(#paint1_linear_20_3465)"/>
<path d="M48.5295 4.63867L32.5319 4.37047L40.3966 12.5034L48.5295 4.63867Z" fill="#3873E4"/>
<path d="M48.5295 4.63867L47.4567 68.6294L79.9885 37.1704L48.5295 4.63867Z" fill="white"/>
<path d="M48.5288 4.63965L47.456 68.6303L79.9877 37.1714L48.5288 4.63965Z" fill="white"/>
<path d="M48.5288 4.63965L47.456 68.6303L79.9877 37.1714L48.5288 4.63965Z" fill="url(#paint2_linear_20_3465)"/>
<rect width="33.941" height="11.3137" transform="matrix(-0.695154 -0.718861 -0.718861 0.695154 39.5923 60.4971)" fill="#FDE7CB"/>
<path d="M47.457 68.6299L39.5923 60.4969L31.4594 68.3617L47.457 68.6299Z" fill="#F5F7F8"/>
<defs>
<linearGradient id="paint0_linear_20_3465" x1="90.2578" y1="34.9375" x2="248.258" y2="34.9375" gradientUnits="userSpaceOnUse">
<stop stop-color="#191822"/>
<stop offset="1" stop-color="#FDE7CB"/>
</linearGradient>
<linearGradient id="paint1_linear_20_3465" x1="5.65683" y1="0" x2="5.65683" y2="33.941" gradientUnits="userSpaceOnUse">
<stop stop-color="#3873E4"/>
<stop offset="1" stop-color="#D23DBB" stop-opacity="0.05"/>
</linearGradient>
<linearGradient id="paint2_linear_20_3465" x1="32.7455" y1="76.6389" x2="159.428" y2="17.5241" gradientUnits="userSpaceOnUse">
<stop stop-color="#3873E4"/>
<stop offset="1" stop-color="#D23DBB" stop-opacity="0.15"/>
</linearGradient>
</defs>
</svg>
