<svg width="16" height="16" viewBox="0 0 16 16" fill="none" xmlns="http://www.w3.org/2000/svg">
<g clip-path="url(#clip0_3368_2251)">
<path d="M15.3002 9.39946C15.2477 9.43885 15.1879 9.46752 15.1243 9.48382C15.0607 9.50011 14.9945 9.50372 14.9295 9.49443C14.8645 9.48515 14.802 9.46315 14.7455 9.4297C14.689 9.39624 14.6396 9.35199 14.6002 9.29946C14.2988 8.89437 13.9066 8.5657 13.455 8.33991C13.0034 8.11411 12.5051 7.9975 12.0002 7.99946C11.9019 7.99945 11.8057 7.97045 11.7238 7.91609C11.6419 7.86173 11.5778 7.78442 11.5396 7.69383C11.5136 7.63232 11.5003 7.56623 11.5003 7.49946C11.5003 7.43269 11.5136 7.3666 11.5396 7.30508C11.5778 7.21449 11.6419 7.13719 11.7238 7.08283C11.8057 7.02847 11.9019 6.99947 12.0002 6.99946C12.2808 6.99943 12.5557 6.92073 12.7937 6.7723C13.0318 6.62386 13.2234 6.41164 13.3469 6.15973C13.4704 5.90783 13.5208 5.62634 13.4923 5.34725C13.4639 5.06815 13.3577 4.80263 13.1859 4.58085C13.0141 4.35907 12.7835 4.18991 12.5204 4.09259C12.2573 3.99528 11.9721 3.97371 11.6974 4.03032C11.4226 4.08694 11.1692 4.21948 10.966 4.41289C10.7628 4.6063 10.6178 4.85282 10.5477 5.12446C10.5313 5.18807 10.5025 5.24782 10.463 5.30031C10.4235 5.35279 10.374 5.39698 10.3174 5.43035C10.2609 5.46372 10.1983 5.48562 10.1332 5.4948C10.0682 5.50397 10.0019 5.50025 9.93831 5.48383C9.8747 5.46742 9.81495 5.43864 9.76246 5.39913C9.70998 5.35962 9.66579 5.31016 9.63242 5.25358C9.59905 5.19699 9.57715 5.13438 9.56797 5.06934C9.55879 5.00429 9.56252 4.93807 9.57894 4.87446C9.67628 4.49778 9.8602 4.14902 10.1161 3.85593C10.3719 3.56284 10.6927 3.3335 11.0527 3.18618C11.4128 3.03885 11.8023 2.9776 12.1902 3.00729C12.5782 3.03698 12.9538 3.1568 13.2873 3.35722C13.6207 3.55763 13.9028 3.8331 14.1111 4.16172C14.3193 4.49034 14.448 4.86303 14.4869 5.25013C14.5258 5.63724 14.4738 6.02808 14.3351 6.39155C14.1963 6.75503 13.9746 7.0811 13.6877 7.34383C14.3676 7.63821 14.9586 8.10534 15.4021 8.69883C15.4415 8.7515 15.4701 8.81141 15.4863 8.87515C15.5025 8.93889 15.506 9.0052 15.4965 9.07028C15.487 9.13536 15.4648 9.19794 15.4311 9.25443C15.3975 9.31091 15.353 9.3602 15.3002 9.39946ZM11.9327 13.2494C11.9689 13.3064 11.9932 13.37 12.0041 13.4365C12.0151 13.5031 12.0124 13.5711 11.9964 13.6366C11.9803 13.7021 11.9512 13.7637 11.9108 13.8177C11.8703 13.8716 11.8194 13.9168 11.761 13.9506C11.7026 13.9843 11.638 14.0059 11.571 14.014C11.5041 14.0222 11.4362 14.0167 11.3714 13.9979C11.3067 13.9791 11.2464 13.9474 11.1942 13.9047C11.142 13.862 11.099 13.8092 11.0677 13.7494C10.7527 13.2161 10.3042 12.7741 9.7662 12.4671C9.22827 12.16 8.61958 11.9985 8.00019 11.9985C7.38079 11.9985 6.7721 12.16 6.23417 12.4671C5.69624 12.7741 5.24766 13.2161 4.93269 13.7494C4.90143 13.8092 4.85841 13.862 4.80621 13.9047C4.75401 13.9474 4.69372 13.9791 4.62895 13.9979C4.56419 14.0167 4.49629 14.0222 4.42935 14.014C4.36241 14.0059 4.2978 13.9843 4.23942 13.9506C4.18104 13.9168 4.13009 13.8716 4.08963 13.8177C4.04917 13.7637 4.02004 13.7021 4.004 13.6366C3.98796 13.5711 3.98533 13.5031 3.99627 13.4365C4.00722 13.37 4.03151 13.3064 4.06769 13.2494C4.55243 12.4166 5.29156 11.7611 6.17644 11.3794C5.67852 10.9982 5.31258 10.4705 5.13006 9.8706C4.94754 9.27065 4.95762 8.62858 5.15888 8.03465C5.36014 7.44072 5.74246 6.92479 6.2521 6.55938C6.76175 6.19397 7.37308 5.99746 8.00019 5.99746C8.62729 5.99746 9.23863 6.19397 9.74827 6.55938C10.2579 6.92479 10.6402 7.44072 10.8415 8.03465C11.0428 8.62858 11.0528 9.27065 10.8703 9.8706C10.6878 10.4705 10.3219 10.9982 9.82394 11.3794C10.7088 11.7611 11.448 12.4166 11.9327 13.2494ZM8.00019 10.9994C8.39575 10.9994 8.78243 10.8822 9.11133 10.6624C9.44022 10.4426 9.69657 10.1303 9.84794 9.76483C9.99932 9.39937 10.0389 8.99724 9.96176 8.60928C9.88459 8.22132 9.6941 7.86495 9.4144 7.58524C9.13469 7.30554 8.77833 7.11506 8.39037 7.03789C8.0024 6.96072 7.60027 7.00032 7.23482 7.1517C6.86937 7.30307 6.55701 7.55942 6.33725 7.88832C6.11748 8.21722 6.00019 8.6039 6.00019 8.99946C6.00019 9.52989 6.2109 10.0386 6.58597 10.4137C6.96105 10.7887 7.46975 10.9994 8.00019 10.9994ZM4.50019 7.49946C4.50019 7.36685 4.44751 7.23967 4.35374 7.14591C4.25997 7.05214 4.13279 6.99946 4.00019 6.99946C3.71964 6.99943 3.44473 6.92073 3.20667 6.7723C2.96861 6.62386 2.77695 6.41164 2.65346 6.15973C2.52996 5.90783 2.47959 5.62634 2.50806 5.34725C2.53653 5.06815 2.6427 4.80263 2.8145 4.58085C2.98631 4.35907 3.21687 4.18991 3.48 4.09259C3.74312 3.99528 4.02827 3.97371 4.30304 4.03032C4.57781 4.08694 4.8312 4.21948 5.03442 4.41289C5.23764 4.6063 5.38255 4.85282 5.45269 5.12446C5.48584 5.25292 5.56866 5.36296 5.68294 5.43035C5.79722 5.49775 5.9336 5.51699 6.06206 5.48383C6.19053 5.45068 6.30056 5.36786 6.36795 5.25358C6.43535 5.1393 6.45459 5.00292 6.42144 4.87446C6.32409 4.49778 6.14017 4.14902 5.88432 3.85593C5.62846 3.56284 5.30774 3.3335 4.94766 3.18618C4.58758 3.03885 4.19808 2.9776 3.81016 3.00729C3.42224 3.03698 3.0466 3.1568 2.71314 3.35722C2.37968 3.55763 2.09759 3.8331 1.88932 4.16172C1.68106 4.49034 1.55236 4.86303 1.51348 5.25013C1.47459 5.63724 1.52659 6.02808 1.66534 6.39155C1.80408 6.75503 2.02575 7.0811 2.31269 7.34383C1.63349 7.63849 1.04313 8.1056 0.60019 8.69883C0.520542 8.80492 0.486299 8.9383 0.504994 9.06964C0.523689 9.20097 0.59379 9.3195 0.699877 9.39915C0.805964 9.47879 0.939345 9.51304 1.07068 9.49434C1.20201 9.47565 1.32054 9.40555 1.40019 9.29946C1.70155 8.89437 2.09382 8.5657 2.54541 8.33991C2.997 8.11411 3.4953 7.9975 4.00019 7.99946C4.13279 7.99946 4.25997 7.94678 4.35374 7.85301C4.44751 7.75924 4.50019 7.63207 4.50019 7.49946Z" fill="#2E2F3A"/>
</g>
<defs>
<clipPath id="clip0_3368_2251">
<rect width="16" height="16" fill="white"/>
</clipPath>
</defs>
</svg>
