<svg width="16" height="16" viewBox="0 0 16 16" fill="none" xmlns="http://www.w3.org/2000/svg">
<g clip-path="url(#clip0_3368_2261)">
<path d="M14.0003 8.00028C14.0003 8.13287 13.9476 8.26007 13.8538 8.35383C13.7601 8.44759 13.6329 8.50031 13.5003 8.50031H8.00028C7.86767 8.50031 7.7405 8.44759 7.64673 8.35383C7.55296 8.26007 7.50028 8.13287 7.50028 8.00028C7.50028 7.86767 7.55296 7.7405 7.64673 7.64673C7.7405 7.55296 7.86767 7.50028 8.00028 7.50028H13.5003C13.6329 7.50028 13.7601 7.55296 13.8538 7.64673C13.9476 7.7405 14.0003 7.86767 14.0003 8.00028ZM8.00028 4.50028H13.5003C13.6329 4.50028 13.7601 4.4476 13.8538 4.35383C13.9476 4.26006 14.0003 4.13289 14.0003 4.00028C14.0003 3.86767 13.9476 3.7405 13.8538 3.64673C13.7601 3.55296 13.6329 3.50028 13.5003 3.50028H8.00028C7.86767 3.50028 7.7405 3.55296 7.64673 3.64673C7.55296 3.7405 7.50028 3.86767 7.50028 4.00028C7.50028 4.13289 7.55296 4.26006 7.64673 4.35383C7.7405 4.4476 7.86767 4.50028 8.00028 4.50028ZM13.5003 11.5003H8.00028C7.86767 11.5003 7.7405 11.553 7.64673 11.6467C7.55296 11.7405 7.50028 11.8677 7.50028 12.0003C7.50028 12.1329 7.55296 12.2601 7.64673 12.3538C7.7405 12.4476 7.86767 12.5003 8.00028 12.5003H13.5003C13.6329 12.5003 13.7601 12.4476 13.8538 12.3538C13.9476 12.2601 14.0003 12.1329 14.0003 12.0003C14.0003 11.8677 13.9476 11.7405 13.8538 11.6467C13.7601 11.553 13.6329 11.5003 13.5003 11.5003ZM5.14653 2.64653L3.50028 4.29341L2.85403 3.64653C2.76021 3.55271 2.63296 3.5 2.50028 3.5C2.3676 3.5 2.24035 3.55271 2.14653 3.64653C2.05271 3.74035 2 3.8676 2 4.00028C2 4.13296 2.05271 4.26021 2.14653 4.35403L3.14653 5.35403C3.19297 5.40052 3.24811 5.4374 3.30881 5.46256C3.36951 5.48772 3.43458 5.50067 3.50028 5.50067C3.56599 5.50067 3.63105 5.48772 3.69175 5.46256C3.75245 5.4374 3.80759 5.40052 3.85403 5.35403L5.85403 3.35403C5.94785 3.26021 6.00056 3.13296 6.00056 3.00028C6.00056 2.8676 5.94785 2.74035 5.85403 2.64653C5.76021 2.55271 5.63296 2.5 5.50028 2.5C5.3676 2.5 5.24035 2.55271 5.14653 2.64653ZM5.14653 6.64653L3.50028 8.29343L2.85403 7.64653C2.76021 7.55271 2.63296 7.5 2.50028 7.5C2.3676 7.5 2.24035 7.55271 2.14653 7.64653C2.05271 7.74035 2 7.8676 2 8.00028C2 8.06599 2.01294 8.13103 2.03809 8.19175C2.06322 8.25239 2.10007 8.30759 2.14653 8.35399L3.14653 9.35399C3.19297 9.40055 3.24811 9.43743 3.30881 9.46255C3.36951 9.48775 3.43458 9.50063 3.50028 9.50063C3.56599 9.50063 3.63105 9.48775 3.69175 9.46255C3.75245 9.43743 3.80759 9.40055 3.85403 9.35399L5.85403 7.35403C5.94785 7.26021 6.00056 7.13296 6.00056 7.00028C6.00056 6.8676 5.94785 6.74035 5.85403 6.64653C5.76021 6.55271 5.63296 6.5 5.50028 6.5C5.3676 6.5 5.24035 6.55271 5.14653 6.64653ZM5.14653 10.6466L3.50028 12.2934L2.85403 11.6466C2.80758 11.6001 2.75242 11.5632 2.69173 11.5381C2.63103 11.513 2.56598 11.5 2.50028 11.5C2.43458 11.5 2.36953 11.513 2.30883 11.5381C2.24814 11.5632 2.19298 11.6001 2.14653 11.6466C2.10007 11.693 2.06322 11.7482 2.03809 11.8088C2.01294 11.8695 2 11.9346 2 12.0003C2 12.066 2.01294 12.131 2.03809 12.1918C2.06322 12.2524 2.10007 12.3076 2.14653 12.354L3.14653 13.354C3.19297 13.4006 3.24811 13.4374 3.30881 13.4626C3.36951 13.4878 3.43458 13.5007 3.50028 13.5007C3.56599 13.5007 3.63105 13.4878 3.69175 13.4626C3.75245 13.4374 3.80759 13.4006 3.85403 13.354L5.85403 11.354C5.94785 11.2602 6.00056 11.133 6.00056 11.0003C6.00056 10.8676 5.94785 10.7403 5.85403 10.6466C5.76021 10.5527 5.63296 10.5 5.50028 10.5C5.3676 10.5 5.24035 10.5527 5.14653 10.6466Z" fill="#2E2F3A"/>
</g>
<defs>
<clipPath id="clip0_3368_2261">
<rect width="16" height="16" fill="white"/>
</clipPath>
</defs>
</svg>
