<svg width="15" height="15" viewBox="0 0 15 15" fill="none" xmlns="http://www.w3.org/2000/svg">
<path d="M13.3854 9.45406L10.073 7.96978L10.0638 7.96556C9.8919 7.89202 9.7043 7.8625 9.518 7.87969C9.3318 7.89687 9.1528 7.96022 8.9972 8.064C8.9789 8.0761 8.9613 8.08925 8.9445 8.10338L7.23305 9.56236C6.14883 9.03576 5.02946 7.92478 4.50282 6.85463L5.96391 5.11721C5.97798 5.09963 5.99133 5.08205 6.00399 5.06307C6.10554 4.90789 6.16716 4.73001 6.18335 4.54526C6.19954 4.36052 6.16981 4.17464 6.0968 4.00416V3.99572L4.60829 0.677666C4.51178 0.454966 4.34583 0.269446 4.13522 0.148806C3.9246 0.028166 3.68062 -0.0211239 3.43969 0.00829608C2.48694 0.133666 1.6124 0.601566 0.979406 1.32462C0.346426 2.04766 -0.00172358 2.97639 6.41654e-06 3.93736C6.41654e-06 9.52016 4.54219 14.0624 10.125 14.0624C11.086 14.0641 12.0147 13.716 12.7378 13.083C13.4608 12.45 13.9287 11.5755 14.0541 10.6227C14.0835 10.3819 14.0344 10.1379 13.9138 9.92726C13.7933 9.71666 13.608 9.55066 13.3854 9.45406ZM10.125 12.9374C7.73886 12.9348 5.45119 11.9857 3.76392 10.2985C2.07666 8.61116 1.12761 6.32351 1.12501 3.93736C1.12236 3.25075 1.36973 2.58666 1.82091 2.06909C2.2721 1.55153 2.89625 1.21589 3.5768 1.12486C3.57653 1.12767 3.57653 1.13049 3.5768 1.1333L5.05337 4.43799L3.60001 6.17752C3.58525 6.19449 3.57185 6.21259 3.55993 6.23166C3.45412 6.39402 3.39205 6.58097 3.37973 6.77437C3.36741 6.96778 3.40526 7.16109 3.48962 7.33557C4.12665 8.63846 5.43938 9.94136 6.75633 10.5777C6.93209 10.6613 7.12652 10.6978 7.32062 10.6838C7.51473 10.6697 7.70187 10.6056 7.8638 10.4976C7.8818 10.4854 7.8992 10.4723 7.9158 10.4582L9.6251 8.99986L12.9298 10.48C12.9298 10.48 12.9354 10.48 12.9375 10.48C12.8476 11.1615 12.5124 11.7869 11.9948 12.2392C11.4771 12.6915 10.8124 12.9397 10.125 12.9374Z" fill="#2E2F3A"/>
</svg>
