<svg width="15" height="14" viewBox="0 0 15 14" fill="none" xmlns="http://www.w3.org/2000/svg">
<path d="M14.3747 4.59459L7.62469 0.0945901C7.53225 0.0329201 7.42362 0 7.3125 0C7.20138 0 7.09275 0.0329201 7.00031 0.0945901L0.25031 4.59459C0.17326 4.646 0.11009 4.71564 0.0664201 4.79733C0.0227601 4.87903 -5.9882e-05 4.97024 1.18012e-07 5.06287V12.3754C1.18012e-07 12.6738 0.11853 12.9599 0.3295 13.1709C0.54048 13.3819 0.82663 13.5004 1.125 13.5004H13.5C13.7984 13.5004 14.0845 13.3819 14.2955 13.1709C14.5065 12.9599 14.625 12.6738 14.625 12.3754V5.06287C14.6251 4.97024 14.6022 4.87903 14.5586 4.79733C14.5149 4.71564 14.4517 4.646 14.3747 4.59459ZM5.11312 9.00037L1.125 11.8129V6.15482L5.11312 9.00037ZM6.26414 9.56287H8.3609L12.3427 12.3754H2.28234L6.26414 9.56287ZM9.5119 9.00037L13.5 6.15482V11.8129L9.5119 9.00037ZM7.3125 1.23857L13.0718 5.07834L8.3609 8.43787H6.26555L1.55461 5.07834L7.3125 1.23857Z" fill="#2E2F3A"/>
</svg>
