<svg width="16" height="16" viewBox="0 0 16 16" fill="none" xmlns="http://www.w3.org/2000/svg">
<g clip-path="url(#clip0_3368_2256)">
<path d="M14.1162 6.42625C13.8806 6.18 13.6369 5.92625 13.545 5.70313C13.46 5.49875 13.455 5.16 13.45 4.83187C13.4406 4.22187 13.4306 3.53062 12.95 3.05C12.4694 2.56938 11.7782 2.55938 11.1682 2.55C10.84 2.545 10.5013 2.54 10.2969 2.455C10.0744 2.36313 9.82 2.11938 9.57376 1.88375C9.14248 1.46938 8.65248 1 8 1C7.3475 1 6.85813 1.46938 6.42625 1.88375C6.18 2.11938 5.92625 2.36313 5.70313 2.455C5.5 2.54 5.16 2.545 4.83187 2.55C4.22187 2.55938 3.53062 2.56938 3.05 3.05C2.56938 3.53062 2.5625 4.22187 2.55 4.83187C2.545 5.16 2.54 5.49875 2.455 5.70313C2.36313 5.92562 2.11938 6.18 1.88375 6.42625C1.46938 6.8575 1 7.3475 1 8C1 8.65248 1.46938 9.14184 1.88375 9.57376C2.11938 9.82 2.36313 10.0738 2.455 10.2969C2.54 10.5013 2.545 10.84 2.55 11.1682C2.55938 11.7782 2.56938 12.4694 3.05 12.95C3.53062 13.4306 4.22187 13.4406 4.83187 13.45C5.16 13.455 5.49875 13.46 5.70313 13.545C5.92562 13.6369 6.18 13.8806 6.42625 14.1162C6.8575 14.5306 7.3475 15 8 15C8.65248 15 9.14184 14.5306 9.57376 14.1162C9.82 13.8806 10.0738 13.6369 10.2969 13.545C10.5013 13.46 10.84 13.455 11.1682 13.45C11.7782 13.4406 12.4694 13.4306 12.95 12.95C13.4306 12.4694 13.4406 11.7782 13.45 11.1682C13.455 10.84 13.46 10.5013 13.545 10.2969C13.6369 10.0744 13.8806 9.82 14.1162 9.57376C14.5306 9.14248 15 8.65248 15 8C15 7.3475 14.5306 6.85813 14.1162 6.42625ZM13.3944 8.88184C13.095 9.1944 12.785 9.51752 12.6206 9.9144C12.4631 10.2956 12.4562 10.7313 12.45 11.1531C12.4438 11.5906 12.4369 12.0487 12.2425 12.2425C12.0482 12.4362 11.5931 12.4438 11.1531 12.45C10.7313 12.4562 10.2956 12.4631 9.9144 12.6206C9.51752 12.785 9.1944 13.095 8.88184 13.3944C8.56936 13.6938 8.25 14 8 14C7.75 14 7.42813 13.6925 7.11813 13.3944C6.80813 13.0962 6.4825 12.785 6.08562 12.6206C5.70438 12.4631 5.26875 12.4562 4.84687 12.45C4.40938 12.4438 3.95125 12.4369 3.7575 12.2425C3.56375 12.0482 3.55625 11.5931 3.55 11.1531C3.54375 10.7313 3.53687 10.2956 3.37938 9.9144C3.215 9.51752 2.905 9.1944 2.60562 8.88184C2.30625 8.56936 2 8.25 2 8C2 7.75 2.3075 7.42813 2.60562 7.11813C2.90375 6.80813 3.215 6.4825 3.37938 6.08562C3.53687 5.70438 3.54375 5.26875 3.55 4.84687C3.55625 4.40938 3.56313 3.95125 3.7575 3.7575C3.95187 3.56375 4.40687 3.55625 4.84687 3.55C5.26875 3.54375 5.70438 3.53687 6.08562 3.37938C6.4825 3.215 6.80562 2.905 7.11813 2.60562C7.43062 2.30625 7.75 2 8 2C8.25 2 8.57184 2.3075 8.88184 2.60562C9.19184 2.90375 9.51752 3.215 9.9144 3.37938C10.2956 3.53687 10.7313 3.54375 11.1531 3.55C11.5906 3.55625 12.0487 3.56313 12.2425 3.7575C12.4362 3.95187 12.4438 4.40687 12.45 4.84687C12.4562 5.26875 12.4631 5.70438 12.6206 6.08562C12.785 6.4825 13.095 6.80562 13.3944 7.11813C13.6938 7.43062 14 7.75 14 8C14 8.25 13.6925 8.57184 13.3944 8.88184ZM10.8538 6.14625C10.9002 6.19269 10.9371 6.24783 10.9623 6.30853C10.9874 6.36923 11.0004 6.4343 11.0004 6.5C11.0004 6.5657 10.9874 6.63077 10.9623 6.69147C10.9371 6.75217 10.9002 6.80731 10.8538 6.85375L7.35375 10.3538C7.30731 10.4002 7.25217 10.4371 7.19147 10.4623C7.13077 10.4874 7.0657 10.5004 7 10.5004C6.9343 10.5004 6.86923 10.4874 6.80853 10.4623C6.74783 10.4371 6.69269 10.4002 6.64625 10.3538L5.14625 8.85376C5.05243 8.75992 4.99972 8.63272 4.99972 8.5C4.99972 8.36728 5.05243 8.24008 5.14625 8.14624C5.24007 8.0524 5.36732 7.99972 5.5 7.99972C5.63268 7.99972 5.75993 8.0524 5.85375 8.14624L7 9.29312L10.1462 6.14625C10.1927 6.09976 10.2478 6.06288 10.3086 6.03772C10.3692 6.01256 10.4343 5.99961 10.5 5.99961C10.5657 5.99961 10.6308 6.01256 10.6914 6.03772C10.7522 6.06288 10.8073 6.09976 10.8538 6.14625Z" fill="#2E2F3A"/>
</g>
<defs>
<clipPath id="clip0_3368_2256">
<rect width="16" height="16" fill="white"/>
</clipPath>
</defs>
</svg>
